<svg width="485" height="65" viewBox="0 0 485 65" fill="none" xmlns="http://www.w3.org/2000/svg">
<g filter="url(#filter0_d_231_975)">
<rect x="4" y="1" width="455" height="56" fill="white"/>
</g>
<path d="M33.464 37.12L33.344 35.944L36.08 35.392L35.12 36.448C35.152 36.272 35.192 36.008 35.24 35.656C35.304 35.288 35.36 34.92 35.408 34.552C35.456 34.184 35.48 33.92 35.48 33.76V23.32C35.48 23.176 35.456 22.952 35.408 22.648C35.376 22.328 35.336 21.992 35.288 21.64C35.24 21.272 35.192 20.936 35.144 20.632L36.08 21.64L33.392 21.208L33.512 19.96C33.816 19.976 34.152 19.992 34.52 20.008C34.888 20.024 35.232 20.04 35.552 20.056C35.888 20.072 36.128 20.08 36.272 20.08H41.624C41.768 20.08 42 20.08 42.32 20.08C42.64 20.064 42.984 20.048 43.352 20.032C43.72 20 44.056 19.976 44.36 19.96L44.816 20.392L44.984 23.512L43.616 23.632L43.352 22.312C43.336 22.184 43.224 21.984 43.016 21.712C42.808 21.44 42.616 21.224 42.44 21.064L43.232 21.52C42.992 21.488 42.648 21.456 42.2 21.424C41.768 21.392 41.336 21.376 40.904 21.376H36.92L37.808 20.752C37.776 21.12 37.736 21.52 37.688 21.952C37.64 22.384 37.6 22.792 37.568 23.176C37.552 23.544 37.544 23.832 37.544 24.04V33.04C37.544 33.44 37.56 33.88 37.592 34.36C37.624 34.84 37.664 35.288 37.712 35.704C37.76 36.12 37.808 36.448 37.856 36.688L36.872 35.68H41.216C41.696 35.68 42.168 35.648 42.632 35.584C43.112 35.504 43.456 35.44 43.664 35.392L42.944 35.968C43.12 35.744 43.304 35.504 43.496 35.248C43.688 34.976 43.8 34.76 43.832 34.6L44.192 32.968L45.488 33.088L45.128 36.664L44.672 37.096C44.368 37.08 44.024 37.064 43.64 37.048C43.272 37.032 42.928 37.016 42.608 37C42.304 37 42.08 37 41.936 37H36.68C36.488 37 36.208 37 35.84 37C35.472 37.016 35.072 37.032 34.64 37.048C34.224 37.064 33.832 37.088 33.464 37.12ZM42.08 30.616L41.744 28.12L42.608 29.104C42.432 29.072 42.168 29.04 41.816 29.008C41.48 28.96 41.128 28.92 40.76 28.888C40.408 28.856 40.128 28.84 39.92 28.84H36.872V27.544H40.4C40.736 27.544 41.128 27.512 41.576 27.448C42.024 27.368 42.328 27.32 42.488 27.304L41.744 28.264L42.08 25.744L43.136 25.864V27.88C43.136 28.744 43.16 29.608 43.208 30.472L42.08 30.616ZM48.0303 37.12L47.9103 35.968L50.5983 35.416L49.6383 36.304C49.6703 36.176 49.7103 35.952 49.7583 35.632C49.8223 35.312 49.8783 34.976 49.9263 34.624C49.9903 34.256 50.0223 33.976 50.0223 33.784V28.456C50.0223 28.248 49.9983 27.968 49.9503 27.616C49.9023 27.248 49.8463 26.888 49.7823 26.536C49.7183 26.168 49.6703 25.904 49.6383 25.744L50.5983 26.848L47.9583 26.392L48.0783 25.144H51.0543L51.5103 25.576L51.8463 29.176L51.3183 27.784C51.5583 27.176 51.8623 26.664 52.2303 26.248C52.6143 25.832 53.0623 25.512 53.5743 25.288C54.0863 25.064 54.6463 24.952 55.2543 24.952C56.3903 24.952 57.2463 25.184 57.8223 25.648C58.3983 26.096 58.7903 26.736 58.9983 27.568C59.2063 28.4 59.3103 29.376 59.3103 30.496V33.064C59.3103 33.656 59.3343 34.24 59.3823 34.816C59.4463 35.392 59.5023 35.84 59.5503 36.16L58.6863 35.512L61.3983 35.752L61.2303 37H58.1583C58.0943 37 57.9183 37.008 57.6303 37.024C57.3423 37.04 57.0223 37.056 56.6703 37.072C56.3343 37.088 56.0303 37.104 55.7583 37.12L55.6383 35.968L58.0383 35.392L57.1503 35.944C57.1983 35.784 57.2463 35.592 57.2943 35.368C57.3583 35.128 57.4063 34.872 57.4383 34.6C57.4863 34.328 57.5103 34.056 57.5103 33.784V30.472C57.5103 29.768 57.4463 29.104 57.3183 28.48C57.1903 27.84 56.9423 27.32 56.5743 26.92C56.2063 26.52 55.6703 26.32 54.9663 26.32C53.9903 26.32 53.2223 26.704 52.6623 27.472C52.1183 28.24 51.8463 29.216 51.8463 30.4V33.064C51.8463 33.688 51.8703 34.328 51.9183 34.984C51.9663 35.64 52.0143 36.112 52.0623 36.4L51.1743 35.512L53.8863 35.752L53.7183 37H50.6703C50.5103 37 50.2783 37.008 49.9743 37.024C49.6703 37.04 49.3423 37.056 48.9903 37.072C48.6543 37.088 48.3343 37.104 48.0303 37.12ZM67.2337 37.36C66.1617 37.36 65.4417 37.072 65.0737 36.496C64.7217 35.92 64.5457 35.096 64.5457 34.024V25.6L65.3137 26.392H62.5297L62.4577 25.432C62.6657 25.352 62.9217 25.264 63.2257 25.168C63.5297 25.056 63.8337 24.944 64.1377 24.832C64.4577 24.72 64.7137 24.632 64.9057 24.568L64.0897 25.36C64.1697 25.264 64.2737 25.096 64.4017 24.856C64.5457 24.6 64.6897 24.32 64.8337 24.016C64.9777 23.696 65.1137 23.408 65.2417 23.152C65.3697 22.896 65.4577 22.712 65.5057 22.6L66.3697 22.696V34.12C66.3697 34.664 66.4657 35.088 66.6577 35.392C66.8497 35.696 67.2177 35.848 67.7617 35.848C68.1137 35.848 68.4737 35.768 68.8417 35.608C69.2257 35.432 69.5697 35.208 69.8737 34.936L70.5217 35.968C69.9457 36.432 69.3777 36.776 68.8177 37C68.2737 37.24 67.7457 37.36 67.2337 37.36ZM65.9617 26.392V25.144H69.9217L69.8017 26.392H65.9617ZM77.7875 37.24C76.5875 37.24 75.5795 36.976 74.7635 36.448C73.9475 35.92 73.3315 35.192 72.9155 34.264C72.5155 33.336 72.3155 32.288 72.3155 31.12C72.3155 29.936 72.4995 28.88 72.8675 27.952C73.2355 27.024 73.8035 26.296 74.5715 25.768C75.3395 25.224 76.3075 24.952 77.4755 24.952C78.5955 24.952 79.4835 25.184 80.1395 25.648C80.7955 26.112 81.2675 26.76 81.5555 27.592C81.8595 28.424 82.0115 29.384 82.0115 30.472L81.6275 31.24H73.8515V30.16L80.7875 29.632L80.0195 30.472C80.0195 30.264 80.0195 30.064 80.0195 29.872C80.0355 29.664 80.0435 29.44 80.0435 29.2C80.0435 28.352 79.8275 27.624 79.3955 27.016C78.9635 26.408 78.2995 26.104 77.4035 26.104C76.8115 26.104 76.3155 26.256 75.9155 26.56C75.5155 26.848 75.2035 27.24 74.9795 27.736C74.7555 28.232 74.5955 28.768 74.4995 29.344C74.4035 29.904 74.3555 30.464 74.3555 31.024C74.3555 31.552 74.4195 32.096 74.5475 32.656C74.6755 33.2 74.8755 33.712 75.1475 34.192C75.4195 34.672 75.7555 35.056 76.1555 35.344C76.5715 35.632 77.0675 35.776 77.6435 35.776C78.3955 35.776 79.1075 35.664 79.7795 35.44C80.4675 35.2 80.9875 34.976 81.3395 34.768L81.9635 35.824C82.0115 35.776 81.9555 35.824 81.7955 35.968C81.6355 36.096 81.3715 36.264 81.0035 36.472C80.6515 36.664 80.2035 36.84 79.6595 37C79.1315 37.16 78.5075 37.24 77.7875 37.24ZM84.1006 37.12L83.9806 35.968L86.6686 35.416L85.7086 36.304C85.7406 36.176 85.7806 35.952 85.8286 35.632C85.8926 35.312 85.9486 34.976 85.9966 34.624C86.0606 34.256 86.0926 33.976 86.0926 33.784V28.456C86.0926 28.248 86.0686 27.968 86.0206 27.616C85.9726 27.248 85.9166 26.888 85.8526 26.536C85.7886 26.168 85.7406 25.904 85.7086 25.744L86.6686 26.848L84.0286 26.392L84.1486 25.144H87.1246L87.5806 25.576L87.9166 29.176L87.1966 28.408C87.3726 27.976 87.5726 27.56 87.7966 27.16C88.0206 26.744 88.2926 26.368 88.6126 26.032C88.9486 25.696 89.3566 25.432 89.8366 25.24C90.3326 25.032 90.9326 24.928 91.6366 24.928C91.9086 24.928 92.1726 24.952 92.4286 25C92.7006 25.032 92.9646 25.088 93.2206 25.168L93.0046 29.032L91.6366 28.96V27.712C91.6366 27.632 91.6046 27.48 91.5406 27.256C91.4766 27.032 91.3966 26.792 91.3006 26.536C91.2206 26.264 91.1406 26.04 91.0606 25.864L92.1886 26.488C92.0286 26.504 91.8606 26.512 91.6846 26.512C91.5246 26.512 91.3646 26.512 91.2046 26.512C90.0526 26.512 89.2126 26.856 88.6846 27.544C88.1726 28.232 87.9166 29.144 87.9166 30.28V33.064C87.9166 33.688 87.9406 34.328 87.9886 34.984C88.0366 35.64 88.0846 36.112 88.1326 36.4L87.2446 35.512L90.4606 35.752L90.3166 37H86.7406C86.5806 37 86.3486 37.008 86.0446 37.024C85.7406 37.04 85.4126 37.056 85.0606 37.072C84.7246 37.088 84.4046 37.104 84.1006 37.12ZM107.446 31.288L103.51 23.704C103.19 23.064 102.83 22.488 102.43 21.976C102.046 21.448 101.79 21.104 101.662 20.944L102.958 21.784L100.534 21.208L100.654 19.96C100.958 19.976 101.294 19.992 101.662 20.008C102.03 20.024 102.374 20.04 102.694 20.056C103.03 20.072 103.27 20.08 103.414 20.08C104.15 20.08 104.838 20.064 105.478 20.032C106.118 20 106.542 19.976 106.75 19.96L106.846 21.328L104.062 21.712L104.734 20.968C104.734 21.128 104.814 21.496 104.974 22.072C105.15 22.648 105.486 23.384 105.982 24.28L108.766 29.512L108.022 29.536L111.166 23.152C111.294 22.896 111.43 22.6 111.574 22.264C111.734 21.912 111.878 21.6 112.006 21.328C112.134 21.04 112.206 20.864 112.222 20.8L112.678 21.736L109.99 21.208L110.11 19.96C110.478 19.976 110.862 20 111.262 20.032C111.678 20.064 112.006 20.08 112.246 20.08C112.998 20.08 113.71 20.064 114.382 20.032C115.054 20 115.494 19.976 115.702 19.96L115.798 21.328L113.302 21.592L114.55 20.944C114.406 21.104 114.142 21.448 113.758 21.976C113.39 22.504 112.998 23.152 112.582 23.92L108.814 31.288H107.446ZM105.166 37.12L105.046 35.944L107.782 35.392L106.846 36.328C106.878 36.184 106.918 35.944 106.966 35.608C107.014 35.256 107.062 34.904 107.11 34.552C107.158 34.184 107.182 33.92 107.182 33.76V29.296H109.246V33.04C109.246 33.456 109.262 33.88 109.294 34.312C109.326 34.728 109.366 35.12 109.414 35.488C109.462 35.84 109.502 36.12 109.534 36.328L108.598 35.488L111.622 35.728L111.454 37H108.382C108.286 37 108.054 37.008 107.686 37.024C107.318 37.04 106.902 37.056 106.438 37.072C105.99 37.088 105.566 37.104 105.166 37.12ZM122.343 37.24C121.127 37.24 120.111 36.976 119.295 36.448C118.479 35.92 117.863 35.2 117.447 34.288C117.047 33.36 116.847 32.296 116.847 31.096C116.847 29.88 117.047 28.816 117.447 27.904C117.863 26.976 118.479 26.248 119.295 25.72C120.111 25.192 121.127 24.928 122.343 24.928C124.167 24.928 125.527 25.496 126.423 26.632C127.335 27.752 127.791 29.24 127.791 31.096C127.791 32.296 127.583 33.36 127.167 34.288C126.767 35.216 126.159 35.944 125.343 36.472C124.543 36.984 123.543 37.24 122.343 37.24ZM122.343 35.944C123.207 35.944 123.887 35.704 124.383 35.224C124.879 34.744 125.223 34.136 125.415 33.4C125.623 32.648 125.727 31.88 125.727 31.096C125.727 30.296 125.623 29.528 125.415 28.792C125.223 28.04 124.879 27.424 124.383 26.944C123.887 26.464 123.207 26.224 122.343 26.224C121.479 26.224 120.799 26.464 120.303 26.944C119.807 27.408 119.447 28.016 119.223 28.768C119.015 29.504 118.911 30.28 118.911 31.096C118.911 31.896 119.015 32.672 119.223 33.424C119.447 34.16 119.807 34.768 120.303 35.248C120.799 35.712 121.479 35.944 122.343 35.944ZM135.178 37.264C134.058 37.264 133.218 37.032 132.658 36.568C132.114 36.088 131.754 35.432 131.578 34.6C131.402 33.752 131.314 32.784 131.314 31.696V28.456C131.314 28.312 131.298 28.104 131.266 27.832C131.234 27.544 131.186 27.232 131.122 26.896C131.074 26.56 131.026 26.256 130.978 25.984L131.842 26.872L129.466 26.392L129.562 25.144H132.826L133.282 25.576C133.266 25.912 133.242 26.304 133.21 26.752C133.178 27.2 133.154 27.64 133.138 28.072C133.122 28.504 133.114 28.872 133.114 29.176V32.608C133.114 33.536 133.29 34.304 133.642 34.912C133.994 35.504 134.634 35.8 135.562 35.8C136.25 35.8 136.818 35.616 137.266 35.248C137.714 34.88 138.05 34.408 138.274 33.832C138.514 33.24 138.634 32.632 138.634 32.008V28.456C138.634 28.312 138.618 28.104 138.586 27.832C138.554 27.544 138.514 27.232 138.466 26.896C138.418 26.56 138.37 26.256 138.322 25.984L139.21 26.848L136.714 26.392L136.81 25.144H140.146L140.602 25.576C140.586 25.912 140.562 26.304 140.53 26.752C140.514 27.2 140.498 27.64 140.482 28.072C140.466 28.504 140.458 28.872 140.458 29.176V33.064C140.458 33.608 140.49 34.16 140.554 34.72C140.634 35.264 140.698 35.816 140.746 36.376L139.882 35.488L142.378 35.752L142.234 37H139.234L138.778 34.336L139.018 34.912C138.922 35.104 138.73 35.392 138.442 35.776C138.17 36.144 137.77 36.488 137.242 36.808C136.73 37.112 136.042 37.264 135.178 37.264ZM143.843 37.12L143.723 35.968L146.411 35.416L145.451 36.304C145.483 36.176 145.523 35.952 145.571 35.632C145.635 35.312 145.691 34.976 145.739 34.624C145.803 34.256 145.835 33.976 145.835 33.784V28.456C145.835 28.248 145.811 27.968 145.763 27.616C145.715 27.248 145.659 26.888 145.595 26.536C145.531 26.168 145.483 25.904 145.451 25.744L146.411 26.848L143.771 26.392L143.891 25.144H146.867L147.323 25.576L147.659 29.176L146.939 28.408C147.115 27.976 147.315 27.56 147.539 27.16C147.763 26.744 148.035 26.368 148.355 26.032C148.691 25.696 149.099 25.432 149.579 25.24C150.075 25.032 150.675 24.928 151.379 24.928C151.651 24.928 151.915 24.952 152.171 25C152.443 25.032 152.707 25.088 152.963 25.168L152.747 29.032L151.379 28.96V27.712C151.379 27.632 151.347 27.48 151.283 27.256C151.219 27.032 151.139 26.792 151.043 26.536C150.963 26.264 150.883 26.04 150.803 25.864L151.931 26.488C151.771 26.504 151.603 26.512 151.427 26.512C151.267 26.512 151.107 26.512 150.947 26.512C149.795 26.512 148.955 26.856 148.427 27.544C147.915 28.232 147.659 29.144 147.659 30.28V33.064C147.659 33.688 147.683 34.328 147.731 34.984C147.779 35.64 147.827 36.112 147.875 36.4L146.987 35.512L150.203 35.752L150.059 37H146.483C146.323 37 146.091 37.008 145.787 37.024C145.483 37.04 145.155 37.056 144.803 37.072C144.467 37.088 144.147 37.104 143.843 37.12ZM160.636 37.12L160.516 35.944L163.252 35.392L162.292 36.448C162.324 36.272 162.364 36.008 162.412 35.656C162.476 35.288 162.532 34.92 162.58 34.552C162.628 34.184 162.652 33.92 162.652 33.76V23.32C162.652 23.176 162.628 22.952 162.58 22.648C162.548 22.328 162.508 21.992 162.46 21.64C162.412 21.272 162.364 20.936 162.316 20.632L163.252 21.64L160.564 21.208L160.684 19.96C160.988 19.976 161.324 19.992 161.692 20.008C162.06 20.024 162.404 20.04 162.724 20.056C163.06 20.072 163.3 20.08 163.444 20.08H168.796C168.94 20.08 169.172 20.08 169.492 20.08C169.812 20.064 170.156 20.048 170.524 20.032C170.892 20 171.228 19.976 171.532 19.96L171.988 20.392L172.156 23.512L170.788 23.632L170.524 22.312C170.508 22.184 170.396 21.984 170.188 21.712C169.98 21.44 169.788 21.224 169.612 21.064L170.404 21.52C170.164 21.488 169.82 21.456 169.372 21.424C168.94 21.392 168.508 21.376 168.076 21.376H164.092L164.98 20.752C164.948 21.12 164.908 21.52 164.86 21.952C164.812 22.384 164.772 22.792 164.74 23.176C164.724 23.544 164.716 23.832 164.716 24.04V33.04C164.716 33.44 164.732 33.88 164.764 34.36C164.796 34.84 164.836 35.288 164.884 35.704C164.932 36.12 164.98 36.448 165.028 36.688L164.044 35.68H168.388C168.868 35.68 169.34 35.648 169.804 35.584C170.284 35.504 170.628 35.44 170.836 35.392L170.116 35.968C170.292 35.744 170.476 35.504 170.668 35.248C170.86 34.976 170.972 34.76 171.004 34.6L171.364 32.968L172.66 33.088L172.3 36.664L171.844 37.096C171.54 37.08 171.196 37.064 170.812 37.048C170.444 37.032 170.1 37.016 169.78 37C169.476 37 169.252 37 169.108 37H163.852C163.66 37 163.38 37 163.012 37C162.644 37.016 162.244 37.032 161.812 37.048C161.396 37.064 161.004 37.088 160.636 37.12ZM169.252 30.616L168.916 28.12L169.78 29.104C169.604 29.072 169.34 29.04 168.988 29.008C168.652 28.96 168.3 28.92 167.932 28.888C167.58 28.856 167.3 28.84 167.092 28.84H164.044V27.544H167.572C167.908 27.544 168.3 27.512 168.748 27.448C169.196 27.368 169.5 27.32 169.66 27.304L168.916 28.264L169.252 25.744L170.308 25.864V27.88C170.308 28.744 170.332 29.608 170.38 30.472L169.252 30.616ZM189.65 37.12L189.53 35.968L191.93 35.392L191.066 36.16C191.114 35.984 191.162 35.752 191.21 35.464C191.258 35.176 191.298 34.88 191.33 34.576C191.378 34.256 191.402 33.992 191.402 33.784V30.472C191.402 29.768 191.346 29.104 191.234 28.48C191.122 27.84 190.906 27.32 190.586 26.92C190.266 26.52 189.794 26.32 189.17 26.32C188.242 26.32 187.506 26.712 186.962 27.496C186.418 28.264 186.13 29.24 186.098 30.424L185.498 28.144C185.786 27.088 186.306 26.296 187.058 25.768C187.81 25.224 188.626 24.952 189.506 24.952C190.546 24.952 191.33 25.184 191.858 25.648C192.386 26.096 192.738 26.736 192.914 27.568C193.106 28.4 193.202 29.376 193.202 30.496V33.064C193.202 33.464 193.218 33.872 193.25 34.288C193.282 34.688 193.314 35.048 193.346 35.368C193.394 35.672 193.426 35.896 193.442 36.04L192.578 35.512L195.266 35.752L195.122 37H192.05C191.97 37 191.786 37.008 191.498 37.024C191.226 37.04 190.914 37.056 190.562 37.072C190.226 37.088 189.922 37.104 189.65 37.12ZM175.202 37.12L175.082 35.968L177.77 35.416L176.81 36.304C176.842 36.176 176.882 35.952 176.93 35.632C176.994 35.312 177.05 34.976 177.098 34.624C177.162 34.256 177.194 33.976 177.194 33.784V28.456C177.194 28.248 177.17 27.968 177.122 27.616C177.074 27.248 177.018 26.888 176.954 26.536C176.89 26.168 176.842 25.904 176.81 25.744L177.77 26.848L175.13 26.392L175.25 25.144H178.226L178.682 25.576L179.018 29.104V33.064C179.018 33.688 179.042 34.328 179.09 34.984C179.138 35.64 179.186 36.112 179.234 36.4L178.346 35.512L181.058 35.752L180.89 37H177.842C177.682 37 177.45 37.008 177.146 37.024C176.842 37.04 176.514 37.056 176.162 37.072C175.826 37.088 175.506 37.104 175.202 37.12ZM182.546 37.12L182.426 35.968L184.826 35.392L183.962 36.16C184.01 35.984 184.058 35.752 184.106 35.464C184.154 35.176 184.194 34.88 184.226 34.576C184.274 34.256 184.298 33.992 184.298 33.784V30.472C184.298 29.768 184.242 29.104 184.13 28.48C184.018 27.84 183.802 27.32 183.482 26.92C183.162 26.52 182.69 26.32 182.066 26.32C181.138 26.32 180.402 26.704 179.858 27.472C179.314 28.24 179.034 29.216 179.018 30.4L178.394 28.12C178.586 27.416 178.882 26.832 179.282 26.368C179.698 25.904 180.17 25.552 180.698 25.312C181.242 25.072 181.81 24.952 182.402 24.952C183.442 24.952 184.226 25.184 184.754 25.648C185.282 26.096 185.634 26.736 185.81 27.568C186.002 28.4 186.098 29.376 186.098 30.496V33.064C186.098 33.464 186.114 33.872 186.146 34.288C186.178 34.688 186.21 35.048 186.242 35.368C186.29 35.672 186.322 35.896 186.338 36.04L185.474 35.512L188.186 35.752L188.018 37H184.946C184.866 37 184.682 37.008 184.394 37.024C184.122 37.04 183.81 37.056 183.458 37.072C183.122 37.088 182.818 37.104 182.546 37.12ZM200.364 37.24C199.292 37.24 198.444 36.968 197.82 36.424C197.196 35.864 196.884 35.12 196.884 34.192C196.884 33.36 197.148 32.672 197.676 32.128C198.22 31.568 199.028 31.2 200.1 31.024L204.3 30.328V31.504L200.388 32.248C199.908 32.328 199.532 32.512 199.26 32.8C198.988 33.088 198.852 33.44 198.852 33.856C198.852 34.464 199.004 34.944 199.308 35.296C199.628 35.632 200.076 35.8 200.652 35.8C201.5 35.8 202.236 35.528 202.86 34.984C203.5 34.44 203.876 33.768 203.988 32.968V29.584C203.988 28.432 203.796 27.576 203.412 27.016C203.028 26.44 202.452 26.152 201.684 26.152C201.348 26.152 200.988 26.184 200.604 26.248C200.22 26.312 199.86 26.4 199.524 26.512C199.188 26.624 198.932 26.744 198.756 26.872L199.5 25.84L199.212 27.64L199.236 28.624L197.844 28.696L197.604 25.504C198.084 25.376 198.564 25.272 199.044 25.192C199.524 25.112 200.004 25.056 200.484 25.024C200.964 24.976 201.444 24.952 201.924 24.952C203.348 24.952 204.348 25.344 204.924 26.128C205.5 26.896 205.788 28.224 205.788 30.112V33.064C205.788 33.784 205.828 34.416 205.908 34.96C206.004 35.488 206.084 35.904 206.148 36.208L205.356 35.488L207.708 35.752L207.564 37H204.564L204.084 34.288L204.516 34.216C204.484 34.664 204.268 35.128 203.868 35.608C203.484 36.072 202.98 36.464 202.356 36.784C201.748 37.088 201.084 37.24 200.364 37.24ZM209.187 37.12L209.067 35.968L211.755 35.416L210.795 36.304C210.827 36.176 210.867 35.952 210.915 35.632C210.979 35.312 211.035 34.976 211.083 34.624C211.147 34.256 211.179 33.976 211.179 33.784V28.456C211.179 28.248 211.155 27.984 211.107 27.664C211.075 27.328 211.027 26.984 210.963 26.632C210.915 26.28 210.867 25.984 210.819 25.744L211.755 26.848L209.115 26.392L209.235 25.144H212.691L213.147 25.576C213.131 25.816 213.107 26.152 213.075 26.584C213.059 27 213.043 27.44 213.027 27.904C213.011 28.368 213.003 28.792 213.003 29.176V33.064C213.003 33.688 213.027 34.328 213.075 34.984C213.123 35.64 213.171 36.112 213.219 36.4L212.331 35.512L215.043 35.752L214.875 37H211.827C211.667 37 211.435 37.008 211.131 37.024C210.827 37.04 210.499 37.056 210.147 37.072C209.811 37.088 209.491 37.104 209.187 37.12ZM211.731 22.792C211.283 22.792 210.939 22.656 210.699 22.384C210.459 22.112 210.339 21.752 210.339 21.304C210.339 20.84 210.459 20.472 210.699 20.2C210.939 19.912 211.283 19.768 211.731 19.768C212.179 19.768 212.523 19.904 212.763 20.176C213.003 20.432 213.123 20.808 213.123 21.304C213.123 21.752 213.003 22.112 212.763 22.384C212.539 22.656 212.195 22.792 211.731 22.792ZM216.187 37.12L216.067 35.968L218.755 35.416L217.795 36.304C217.827 36.176 217.867 35.952 217.915 35.632C217.979 35.312 218.035 34.976 218.083 34.624C218.147 34.256 218.179 33.976 218.179 33.784V22.168C218.179 21.96 218.155 21.696 218.107 21.376C218.075 21.04 218.027 20.696 217.963 20.344C217.915 19.992 217.867 19.696 217.819 19.456L218.755 20.56L216.115 19.984L216.235 18.784L218.371 18.856H219.691L220.147 19.288C220.131 19.528 220.107 19.864 220.075 20.296C220.059 20.712 220.043 21.152 220.027 21.616C220.011 22.08 220.003 22.504 220.003 22.888V33.064C220.003 33.704 220.027 34.352 220.075 35.008C220.123 35.648 220.171 36.112 220.219 36.4L219.331 35.512L222.043 35.752L221.875 37H218.827C218.667 37 218.435 37.008 218.131 37.024C217.827 37.04 217.499 37.056 217.146 37.072C216.811 37.088 216.491 37.104 216.187 37.12Z" fill="#D2D6DB"/>
<defs>
<filter id="filter0_d_231_975" x="0" y="1" width="463" height="64" filterUnits="userSpaceOnUse" color-interpolation-filters="sRGB">
<feFlood flood-opacity="0" result="BackgroundImageFix"/>
<feColorMatrix in="SourceAlpha" type="matrix" values="0 0 0 0 0 0 0 0 0 0 0 0 0 0 0 0 0 0 127 0" result="hardAlpha"/>
<feOffset dy="4"/>
<feGaussianBlur stdDeviation="2"/>
<feComposite in2="hardAlpha" operator="out"/>
<feColorMatrix type="matrix" values="0 0 0 0 0 0 0 0 0 0 0 0 0 0 0 0 0 0 0.25 0"/>
<feBlend mode="normal" in2="BackgroundImageFix" result="effect1_dropShadow_231_975"/>
<feBlend mode="normal" in="SourceGraphic" in2="effect1_dropShadow_231_975" result="shape"/>
</filter>
</defs>
</svg>
