<svg width="233" height="243" viewBox="0 0 233 243" fill="none" xmlns="http://www.w3.org/2000/svg">
<path d="M231.657 131.239V131.239ZM231.657 131.239L231.548 132.392L231.423 133.543L231.284 134.69L231.13 135.834L230.961 136.975L230.778 138.112L230.58 139.246L230.368 140.375L230.142 141.501L229.903 142.622L229.65 143.739L229.385 144.851L229.107 145.959L228.816 147.062L228.513 148.161L228.199 149.254L227.874 150.344L227.538 151.428L227.191 152.508L226.834 153.583L226.467 154.654L226.091 155.72L225.706 156.781L225.312 157.839L224.91 158.892L224.5 159.941L224.082 160.986L223.656 162.028L223.224 163.066L222.784 164.1L222.338 165.132L221.885 166.16L221.426 167.186L220.961 168.209L220.49 169.23L220.013 170.248L219.53 171.265L219.041 172.279L218.547 173.292L218.047 174.304L217.541 175.315L217.029 176.324L216.512 177.333L215.989 178.341L215.459 179.348L214.924 180.355L214.382 181.362L213.834 182.368L213.279 183.374L212.717 184.38L212.148 185.386L211.571 186.392L210.987 187.397L210.395 188.403L209.795 189.408L209.186 190.413L208.568 191.418L207.941 192.422L207.305 193.426L206.659 194.428L206.003 195.43L205.336 196.431L204.658 197.43L203.97 198.427L203.269 199.423L202.557 200.416L201.833 201.406L201.097 202.394L200.348 203.378L199.585 204.359L198.81 205.335L198.021 206.307L197.218 207.274L196.401 208.235L195.57 209.191L194.724 210.14L193.863 211.083L192.988 212.018L192.098 212.945L191.193 213.864L190.273 214.775L189.337 215.676L188.387 216.569L187.421 217.451L186.44 218.323L185.444 219.184L184.433 220.034L183.407 220.872L182.365 221.699L181.309 222.514L180.238 223.316L179.152 224.105L178.052 224.881L176.938 225.643L175.809 226.392L174.666 227.126L173.509 227.846L172.338 228.551L171.154 229.241L169.957 229.915L168.746 230.574L167.522 231.218L166.286 231.844L165.037 232.455L163.775 233.049L162.502 233.626L161.217 234.186L159.92 234.728L158.612 235.253L157.293 235.759L155.963 236.248L154.622 236.718L153.271 237.17L151.91 237.602L150.54 238.016L149.159 238.41L147.77 238.785L146.372 239.14L144.965 239.476L143.55 239.791L142.127 240.086L140.696 240.36L139.258 240.614L137.813 240.847L136.361 241.059L134.903 241.249L133.439 241.419L131.969 241.567L130.493 241.694L129.013 241.799L127.528 241.882L126.038 241.943L124.545 241.983L123.048 242L121.547 241.995L120.044 241.968L118.537 241.919L117.029 241.847L115.519 241.753L114.007 241.636L112.493 241.497L110.979 241.335L109.465 241.151L107.95 240.944L106.435 240.714L104.921 240.462L103.408 240.187L101.896 239.89L100.385 239.57L98.8768 239.227L97.3704 238.862L95.8665 238.474L94.3656 238.064L92.8679 237.631L91.3737 237.176L89.8835 236.699L88.3974 236.2L86.9158 235.679L85.439 235.136L83.9673 234.571L82.5009 233.984L81.0401 233.376L79.5851 232.746L78.1363 232.095L76.6938 231.424L75.2579 230.731L73.8287 230.018L72.4065 229.284L70.9915 228.53L69.5839 227.756L68.1838 226.962L66.7915 226.148L65.4071 225.315L64.0308 224.462L62.6628 223.59L61.3033 222.699L59.9524 221.789L58.6102 220.861L57.2771 219.913L55.953 218.947L54.6383 217.963L53.333 216.961L52.0374 215.94L50.7517 214.901L49.476 213.845L48.2105 212.77L46.9554 211.678L45.711 210.568L44.4774 209.441L43.2549 208.296L42.0436 207.134L40.8439 205.954L39.6558 204.757L38.4798 203.544L37.3159 202.313L36.1645 201.065L35.0257 199.8L33.8999 198.518L32.7873 197.22L31.6881 195.905L30.6027 194.573L29.5311 193.225L28.4737 191.86L27.4308 190.48L26.4025 189.083L25.3891 187.67L24.3908 186.242L23.4079 184.798L22.4405 183.338L21.489 181.862L20.5537 180.372L19.6347 178.866L18.7325 177.345L17.8473 175.809L16.9795 174.258L16.1295 172.693L15.2976 171.113L14.4842 169.518L13.6897 167.91L12.9146 166.287L12.1592 164.65L11.424 163L10.7096 161.336L10.0162 159.658L9.3445 157.968L8.6949 156.264L8.06793 154.548L7.46408 152.82L6.88388 151.08L6.32784 149.327L5.7965 147.564L5.29038 145.789L4.81002 144.003L4.35594 142.207L3.92867 140.402L3.52873 138.586L3.1566 136.762L2.81276 134.929L2.49762 133.088L2.2116 131.239L1.95506 129.383L1.72836 127.52L1.5318 125.652L1.36569 123.778L1.23027 121.899L1.1258 120.015L1.05248 118.128L1.01049 116.238L1 114.345L1.02114 112.451L1.07404 110.554L1.15877 108.657L1.27541 106.76L1.42402 104.864L1.60462 102.968L1.81723 101.074L2.06185 99.1824L2.33844 97.2936L2.64698 95.4083L2.9874 93.5271L3.35965 91.6505L3.76363 89.7793L4.19926 87.914L4.66642 86.0552L5.165 84.2034L5.69485 82.3594L6.25585 80.5236L6.84783 78.6968L7.47063 76.8793L8.12407 75.0719L8.80797 73.2752L9.52213 71.4896L10.2663 69.7158L11.0404 67.9543L11.8441 66.2057L12.6772 64.4706L13.5394 62.7496L14.4305 61.0431L15.3502 59.3518L16.2983 57.6762L17.2744 56.0168L18.2783 54.3743L19.3097 52.749L20.3683 51.1416L21.4536 49.5525L22.5655 47.9823L23.7035 46.4316L24.8672 44.9007L26.0564 43.3902L27.2706 41.9006L28.5094 40.4324L29.7724 38.986L31.0593 37.5619L32.3695 36.1605L33.7026 34.7823L35.0582 33.4277L36.4359 32.0972L37.8351 30.7911L39.2553 29.5098L40.6961 28.2537L42.1571 27.0232L43.6375 25.8187L45.137 24.6404L46.6551 23.4888L48.1911 22.3641L49.7445 21.2666L51.3149 20.1966L52.9015 19.1545L54.504 18.1404L56.1216 17.1545L57.7538 16.1973L59.4001 15.2687L61.0599 14.3692L62.7326 13.4987L64.4175 12.6576L66.1142 11.846L67.8219 11.064L69.5402 10.3117L71.2683 9.58924L73.0056 8.89657L74.7516 8.23376L76.5055 7.60081L78.2668 6.99769L80.0349 6.42436L81.809 5.88073L83.5886 5.36674L85.373 4.88225L87.1617 4.42717L88.9541 4.00133L90.7495 3.60459L92.5474 3.23679L94.3472 2.89775L96.1484 2.58729L97.9503 2.3052L99.7526 2.05129L101.555 1.82536L103.356 1.62721L105.156 1.45661L106.954 1.31336L108.75 1.19725L110.543 1.10806L112.333 1.0456L114.12 1.00964L115.902 1L117.68 1.01646L119.453 1.05884L121.221 1.12693L122.983 1.22056L124.739 1.33952L126.489 1.48365L128.232 1.65275L129.968 1.84665L131.696 2.06517L133.416 2.30814L135.128 2.57538L136.831 2.86671L138.525 3.18194L140.21 3.5209L141.885 3.88338L143.55 4.2692L145.205 4.67814L146.849 5.10999L148.481 5.56452L150.103 6.0415L151.713 6.54065L153.31 7.06172L154.896 7.60442L156.469 8.16845L158.029 8.75353L159.575 9.35939L161.108 9.98574L162.628 10.6323L164.133 11.2989L165.624 11.9851L167.101 12.6908L168.562 13.4157L170.008 14.1595L171.44 14.922L172.855 15.7029L174.254 16.5019L175.638 17.3189L177.005 18.1536L178.355 19.0056L179.688 19.8748L181.004 20.7608L182.303 21.6634L183.584 22.5823L184.848 23.5172L186.093 24.4678L187.32 25.4338L188.528 26.4149L189.718 27.4108L190.889 28.4212L192.041 29.4456L193.173 30.4839L194.286 31.5356L195.38 32.6003L196.454 33.6776L197.508 34.7672L198.542 35.8684L199.556 36.9809L200.55 38.1042L201.524 39.2378L202.478 40.3811L203.413 41.5336L204.327 42.6947L205.222 43.864L206.096 45.0409L206.952 46.2248L207.788 47.4153L208.605 48.6116L209.403 49.8134L210.182 51.0201L210.943 52.2312L211.685 53.4462L212.41 54.6645L213.117 55.8858L213.806 57.1095L214.479 58.3353L215.135 59.5626L215.774 60.7912L216.398 62.0207L217.005 63.2506L217.598 64.4807L218.175 65.7107L218.738 66.9402L219.286 68.1691L219.821 69.3971L220.341 70.624L220.849 71.8497L221.343 73.0738L221.824 74.2964L222.293 75.5173L222.75 76.7365L223.195 77.9537L223.628 79.1691L224.05 80.3824L224.46 81.5939L224.859 82.8033L225.247 84.0107L225.624 85.2162L225.991 86.4198L226.347 87.6215L226.693 88.8213L227.028 90.0194L227.353 91.2157L227.668 92.4104L227.972 93.6034L228.267 94.795L228.551 95.9851L228.825 97.1738L229.089 98.3613L229.343 99.5476L229.586 100.733L229.819 101.917L230.041 103.1L230.252 104.283L230.453 105.464L230.642 106.645L230.82 107.825L230.986 109.004L231.141 110.183L231.284 111.361L231.414 112.539L231.532 113.716L231.637 114.892L231.73 116.067L231.809 117.242L231.875 118.416L231.927 119.589L231.966 120.761L231.99 121.931L232 123.101L231.996 124.269L231.977 125.436L231.943 126.6L231.894 127.763L231.83 128.924L231.751 130.083L231.657 131.239" stroke="black"/>
</svg>
