<svg width="56" height="56" viewBox="0 0 56 56" fill="none" xmlns="http://www.w3.org/2000/svg">
<path d="M44.3333 25.6665H16.6599L25.1299 15.4932C25.526 15.0167 25.7165 14.4023 25.6596 13.7853C25.6027 13.1683 25.3031 12.5992 24.8266 12.2032C24.3501 11.8071 23.7358 11.6166 23.1188 11.6734C22.5018 11.7303 21.9326 12.03 21.5366 12.5065L9.86992 26.5065C9.79143 26.6179 9.72124 26.7348 9.65992 26.8565C9.65992 26.9732 9.65992 27.0432 9.49659 27.1598C9.39082 27.4274 9.33545 27.7122 9.33325 27.9998C9.33545 28.2875 9.39082 28.5723 9.49659 28.8398C9.49659 28.9565 9.49658 29.0265 9.65992 29.1432C9.72124 29.2648 9.79143 29.3818 9.86992 29.4932L21.5366 43.4932C21.756 43.7565 22.0307 43.9684 22.3412 44.1136C22.6518 44.2587 22.9905 44.3337 23.3333 44.3332C23.8784 44.3342 24.4068 44.1443 24.8266 43.7965C25.0629 43.6006 25.2582 43.36 25.4013 43.0886C25.5445 42.8171 25.6327 42.52 25.6608 42.2144C25.689 41.9088 25.6566 41.6006 25.5655 41.3076C25.4744 41.0145 25.3264 40.7423 25.1299 40.5065L16.6599 30.3332H44.3333C44.9521 30.3332 45.5456 30.0873 45.9832 29.6497C46.4208 29.2122 46.6666 28.6187 46.6666 27.9998C46.6666 27.381 46.4208 26.7875 45.9832 26.3499C45.5456 25.9123 44.9521 25.6665 44.3333 25.6665Z" fill="#686868"/>
</svg>
