<svg width="124" height="124" viewBox="0 0 124 124" fill="none" xmlns="http://www.w3.org/2000/svg">
<path d="M70.9531 97.4767C70.1866 97.4793 69.4293 97.3101 68.7368 96.9816C68.0443 96.6532 67.4342 96.1737 66.9514 95.5785L42.1717 64.7963C41.4172 63.8783 41.0046 62.7268 41.0046 61.5385C41.0046 60.3502 41.4172 59.1987 42.1717 58.2807L67.8235 27.4986C68.6944 26.4509 69.9457 25.792 71.3023 25.6669C72.6589 25.5418 74.0096 25.9608 75.0573 26.8316C76.1051 27.7024 76.7639 28.9538 76.889 30.3104C77.0141 31.667 76.5951 33.0177 75.7243 34.0654L52.7916 61.5642L74.9547 89.0629C75.5821 89.816 75.9806 90.733 76.1031 91.7054C76.2256 92.6779 76.067 93.6651 75.646 94.5502C75.2251 95.4353 74.5593 96.1813 73.7277 96.7C72.896 97.2186 71.9331 97.4881 70.9531 97.4767Z" fill="#FFF73A"/>
</svg>
