<svg width="122" height="122" viewBox="0 0 122 122" fill="none" xmlns="http://www.w3.org/2000/svg">
<path d="M50.7358 96.3979C49.5504 96.4002 48.4015 95.9874 47.4887 95.231C46.975 94.8051 46.5503 94.282 46.2391 93.6917C45.9278 93.1014 45.736 92.4555 45.6747 91.791C45.6135 91.1264 45.6839 90.4564 45.882 89.8191C46.0801 89.1819 46.402 88.5899 46.8292 88.0773L69.5588 60.8829L47.6409 33.6378C47.2195 33.1188 46.9048 32.5217 46.7149 31.8807C46.525 31.2397 46.4636 30.5675 46.5343 29.9027C46.605 29.2379 46.8064 28.5937 47.127 28.007C47.4475 27.4203 47.8808 26.9028 48.402 26.4841C48.9269 26.0222 49.5417 25.6738 50.2076 25.4608C50.8736 25.2477 51.5764 25.1747 52.272 25.2461C52.9675 25.3176 53.6408 25.532 54.2495 25.876C54.8583 26.22 55.3893 26.6861 55.8094 27.2451L80.3148 57.6865C81.061 58.5944 81.4689 59.7331 81.4689 60.9083C81.4689 62.0834 81.061 63.2222 80.3148 64.13L54.9469 94.5714C54.4379 95.1854 53.7914 95.6708 53.0597 95.9881C52.3281 96.3055 51.5319 96.4459 50.7358 96.3979Z" fill="#FFF73A"/>
</svg>
