<svg width="66" height="66" viewBox="0 0 66 66" fill="none" xmlns="http://www.w3.org/2000/svg">
<path d="M52.25 11H13.75C11.562 11 9.46354 11.8692 7.91637 13.4164C6.36919 14.9635 5.5 17.062 5.5 19.25V46.75C5.5 48.938 6.36919 51.0365 7.91637 52.5836C9.46354 54.1308 11.562 55 13.75 55H52.25C54.438 55 56.5365 54.1308 58.0836 52.5836C59.6308 51.0365 60.5 48.938 60.5 46.75V19.25C60.5 17.062 59.6308 14.9635 58.0836 13.4164C56.5365 11.8692 54.438 11 52.25 11ZM50.4075 16.5L33 29.5625L15.5925 16.5H50.4075ZM52.25 49.5H13.75C13.0207 49.5 12.3212 49.2103 11.8055 48.6945C11.2897 48.1788 11 47.4793 11 46.75V19.9375L31.35 35.2C31.826 35.557 32.405 35.75 33 35.75C33.595 35.75 34.174 35.557 34.65 35.2L55 19.9375V46.75C55 47.4793 54.7103 48.1788 54.1945 48.6945C53.6788 49.2103 52.9793 49.5 52.25 49.5Z" fill="#231F20"/>
</svg>
