<svg width="62" height="62" viewBox="0 0 62 62" fill="none" xmlns="http://www.w3.org/2000/svg">
<path d="M44.9498 56.834C34.4028 56.8203 24.2917 52.6244 16.8339 45.1666C9.37601 37.7087 5.18017 27.5976 5.1665 17.0506C5.1665 13.899 6.41849 10.8764 8.64705 8.64784C10.8756 6.41928 13.8982 5.16729 17.0498 5.16729C17.7172 5.1622 18.3835 5.22277 19.039 5.34812C19.6727 5.4419 20.2957 5.59764 20.899 5.81312C21.3233 5.962 21.7014 6.21905 21.9959 6.55886C22.2904 6.89867 22.4911 7.30946 22.5782 7.75062L26.1173 23.2506C26.2127 23.6714 26.2012 24.1093 26.0839 24.5244C25.9666 24.9396 25.7472 25.3187 25.4457 25.6273C25.1098 25.989 25.084 26.0148 21.9065 27.6681C24.4511 33.2503 28.9156 37.7332 34.4873 40.3006C36.1665 37.0973 36.1923 37.0715 36.554 36.7356C36.8626 36.4341 37.2417 36.2147 37.6569 36.0974C38.072 35.98 38.5099 35.9686 38.9307 36.064L54.4307 39.6031C54.8577 39.7022 55.2525 39.9083 55.5779 40.2021C55.9033 40.4958 56.1486 40.8676 56.2907 41.2823C56.5087 41.8955 56.6729 42.5265 56.7815 43.1681C56.8855 43.8174 56.9373 44.4739 56.9365 45.1315C56.8889 48.2696 55.6017 51.2615 53.3559 53.4541C51.1102 55.6466 48.0883 56.8616 44.9498 56.834ZM17.0498 10.334C15.2706 10.3408 13.5661 11.0506 12.308 12.3087C11.0498 13.5669 10.34 15.2713 10.3332 17.0506C10.34 26.2294 13.9893 35.0303 20.4797 41.5207C26.9701 48.0111 35.771 51.6604 44.9498 51.6673C46.7291 51.6605 48.4336 50.9507 49.6917 49.6925C50.9499 48.4344 51.6597 46.7299 51.6665 44.9506C51.6665 44.6665 51.6665 44.3823 51.6665 44.0981L39.6798 41.334L38.9307 42.7548C37.7682 45.0023 36.9157 46.6298 34.7457 45.7515C30.4648 44.2192 26.579 41.7525 23.3706 38.5307C20.1622 35.3089 17.7117 31.4129 16.1973 27.1256C15.2673 25.1106 17.024 24.1806 19.2457 23.0181L20.6665 22.3206L17.9023 10.334H17.0498Z" fill="#231F20"/>
</svg>
