<svg width="65" height="65" viewBox="0 0 65 65" fill="none" xmlns="http://www.w3.org/2000/svg">
<path d="M32.4998 29.7917C34.6425 29.7917 36.737 29.1563 38.5185 27.9659C40.3 26.7755 41.6886 25.0836 42.5085 23.1041C43.3285 21.1245 43.543 18.9463 43.125 16.8449C42.707 14.7434 41.6752 12.8131 40.1602 11.298C38.6451 9.78295 36.7148 8.75117 34.6133 8.33316C32.5119 7.91516 30.3336 8.12969 28.3541 8.94964C26.3746 9.76959 24.6826 11.1581 23.4923 12.9397C22.3019 14.7212 21.6665 16.8157 21.6665 18.9583C21.6665 21.8315 22.8079 24.587 24.8395 26.6187C26.8712 28.6503 29.6267 29.7917 32.4998 29.7917ZM32.4998 13.5417C33.5712 13.5417 34.6184 13.8594 35.5092 14.4545C36.3999 15.0497 37.0942 15.8957 37.5042 16.8855C37.9142 17.8752 38.0214 18.9643 37.8124 20.0151C37.6034 21.0658 37.0875 22.031 36.33 22.7885C35.5725 23.546 34.6073 24.0619 33.5566 24.2709C32.5058 24.4799 31.4167 24.3727 30.427 23.9627C29.4372 23.5527 28.5912 22.8584 27.996 21.9677C27.4009 21.0769 27.0832 20.0297 27.0832 18.9583C27.0832 17.5217 27.6539 16.144 28.6697 15.1282C29.6855 14.1124 31.0632 13.5417 32.4998 13.5417Z" fill="#231F20"/>
<path d="M32.4998 35.208C27.4718 35.208 22.6496 37.2054 19.0943 40.7608C15.5389 44.3162 13.5415 49.1383 13.5415 54.1663C13.5415 54.8846 13.8268 55.5735 14.3348 56.0814C14.8427 56.5893 15.5315 56.8747 16.2498 56.8747C16.9681 56.8747 17.657 56.5893 18.1649 56.0814C18.6728 55.5735 18.9582 54.8846 18.9582 54.1663C18.9582 50.5749 20.3849 47.1305 22.9244 44.5909C25.464 42.0514 28.9084 40.6247 32.4998 40.6247C36.0913 40.6247 39.5357 42.0514 42.0752 44.5909C44.6148 47.1305 46.0415 50.5749 46.0415 54.1663C46.0415 54.8846 46.3268 55.5735 46.8348 56.0814C47.3427 56.5893 48.0315 56.8747 48.7498 56.8747C49.4681 56.8747 50.157 56.5893 50.6649 56.0814C51.1728 55.5735 51.4582 54.8846 51.4582 54.1663C51.4582 49.1383 49.4608 44.3162 45.9054 40.7608C42.35 37.2054 37.5279 35.208 32.4998 35.208Z" fill="#231F20"/>
</svg>
