<svg width="54" height="54" viewBox="0 0 54 54" fill="none" xmlns="http://www.w3.org/2000/svg">
<path d="M30.1724 27L39.8474 17.3475C40.271 16.9238 40.5091 16.3492 40.5091 15.75C40.5091 15.1508 40.271 14.5762 39.8474 14.1525C39.4237 13.7288 38.849 13.4908 38.2499 13.4908C37.6507 13.4908 37.076 13.7288 36.6524 14.1525L26.9999 23.8275L17.3474 14.1525C16.9237 13.7288 16.349 13.4908 15.7499 13.4908C15.1507 13.4908 14.576 13.7288 14.1524 14.1525C13.7287 14.5762 13.4907 15.1508 13.4907 15.75C13.4907 16.3492 13.7287 16.9238 14.1524 17.3475L23.8274 27L14.1524 36.6525C13.9415 36.8617 13.7741 37.1105 13.6599 37.3847C13.5456 37.6589 13.4868 37.953 13.4868 38.25C13.4868 38.547 13.5456 38.8411 13.6599 39.1153C13.7741 39.3895 13.9415 39.6383 14.1524 39.8475C14.3615 40.0584 14.6104 40.2258 14.8846 40.34C15.1587 40.4542 15.4528 40.513 15.7499 40.513C16.0469 40.513 16.341 40.4542 16.6152 40.34C16.8893 40.2258 17.1382 40.0584 17.3474 39.8475L26.9999 30.1725L36.6524 39.8475C36.8615 40.0584 37.1104 40.2258 37.3846 40.34C37.6587 40.4542 37.9528 40.513 38.2499 40.513C38.5469 40.513 38.841 40.4542 39.1152 40.34C39.3893 40.2258 39.6382 40.0584 39.8474 39.8475C40.0583 39.6383 40.2256 39.3895 40.3399 39.1153C40.4541 38.8411 40.5129 38.547 40.5129 38.25C40.5129 37.953 40.4541 37.6589 40.3399 37.3847C40.2256 37.1105 40.0583 36.8617 39.8474 36.6525L30.1724 27Z" fill="#686868"/>
</svg>
